<?xml version="1.0" standalone="no"?>
<!DOCTYPE svg PUBLIC "-//W3C//DTD SVG 20010904//EN"
 "http://www.w3.org/TR/2001/REC-SVG-20010904/DTD/svg10.dtd">
<svg version="1.0" xmlns="http://www.w3.org/2000/svg"
 width="1484.000000pt" height="1454.000000pt" viewBox="0 0 1484.000000 1454.000000"
 preserveAspectRatio="xMidYMid meet" >
<metadata>
Created by potrace 1.16, written by Peter Selinger 2001-2019
</metadata>
<g transform="translate(0.000000,1454.000000) scale(0.100000,-0.100000)"
fill="black" stroke="none">
<path d="M8487 13713 c-4 -3 -7 -14 -7 -24 0 -16 2 -17 28 -3 15 7 40 14 55
14 l28 0 -3 -170 -3 -170 25 0 25 0 -3 170 -3 170 28 0 c15 0 40 -7 56 -14 27
-15 32 -11 21 18 -5 13 -26 16 -123 16 -65 0 -121 -3 -124 -7z"/>
<path d="M8267 13704 c-3 -4 -2 -15 3 -24 5 -10 13 -74 16 -143 l7 -125 -26
-26 c-43 -43 -117 -35 -143 15 -16 31 -39 226 -31 266 4 22 2 24 -22 18 -14
-4 -27 -7 -27 -8 -1 -1 2 -27 6 -57 5 -30 13 -93 19 -139 9 -70 16 -90 38
-113 50 -52 152 -45 193 12 20 28 21 40 18 180 -3 144 -4 150 -24 150 -11 0
-24 -3 -27 -6z"/>
<path d="M8917 13691 c7 -28 -17 -302 -28 -323 -8 -16 -5 -18 23 -18 l33 0 1
93 c1 50 4 126 8 168 l7 76 41 -7 c52 -10 72 -31 71 -75 -1 -48 -27 -75 -71
-75 -26 0 -33 -3 -28 -15 4 -11 100 -161 110 -171 1 -1 13 -4 29 -8 26 -6 25
-3 -33 81 l-61 88 30 12 c39 16 61 49 61 93 0 62 -61 98 -167 100 -26 0 -30
-3 -26 -19z"/>
<path d="M9380 13513 c-51 -81 -102 -158 -112 -169 -19 -21 -19 -21 4 -28 34
-9 38 -8 32 8 -3 7 9 37 27 66 31 50 33 52 68 46 102 -18 98 -14 108 -107 5
-54 7 -57 34 -61 26 -4 28 -2 22 16 -3 12 -25 101 -48 199 l-41 179 -94 -149z"/>
<path d="M7707 13628 c-48 -9 -57 -13 -52 -27 13 -33 64 -312 59 -325 -4 -9 4
-11 26 -8 24 3 30 8 24 21 -7 16 -34 121 -34 132 0 4 18 9 41 13 87 14 131
110 77 170 -28 30 -66 37 -141 24z m93 -28 c29 -16 43 -79 24 -108 -16 -25
-58 -45 -83 -40 -16 3 -46 121 -36 145 5 15 69 17 95 3z"/>
<path d="M6950 13511 c-8 -5 -33 -12 -55 -16 -90 -15 -523 -147 -610 -184 -11
-5 -105 -44 -210 -87 -209 -85 -448 -201 -625 -302 -155 -88 -383 -233 -393
-249 -4 -7 -13 -13 -20 -13 -7 0 -51 -31 -99 -68 -48 -37 -119 -89 -158 -116
-80 -56 -252 -199 -383 -319 l-89 -81 31 -28 32 -28 137 118 c440 380 815 631
1287 863 163 79 432 196 495 214 14 4 39 13 55 21 82 37 569 184 609 184 13 0
16 11 16 50 0 28 -1 50 -2 50 -2 0 -10 -4 -18 -9z"/>
<path d="M10039 13471 c-21 -17 -24 -27 -22 -78 l1 -58 -40 -19 c-45 -21 -62
-55 -53 -104 11 -57 84 -87 150 -62 25 9 30 6 64 -31 29 -34 41 -40 59 -35 25
8 30 26 8 26 -8 0 -27 16 -41 34 l-27 35 63 59 63 59 -32 11 c-30 10 -32 10
-32 -12 0 -25 -50 -86 -69 -86 -9 0 -61 99 -61 115 0 2 15 8 33 14 48 16 77
47 77 81 0 59 -91 92 -141 51z"/>
<path d="M10710 13245 c0 -26 -139 -295 -153 -295 -13 -1 21 -30 35 -30 4 0 8
8 9 18 0 9 27 69 60 132 l59 115 -6 -165 -7 -165 54 46 c106 89 193 159 195
156 5 -5 -116 -236 -127 -242 -6 -4 -3 -12 8 -21 24 -18 43 -18 43 1 0 22 130
277 147 290 12 9 10 13 -11 23 -24 11 -33 6 -140 -83 -63 -52 -118 -95 -121
-95 -4 0 -4 69 0 153 l7 153 -26 12 c-22 10 -26 9 -26 -3z"/>
<path d="M11181 12908 c-72 -36 -122 -134 -106 -208 15 -71 109 -139 190 -140
114 0 211 135 175 244 -21 66 -112 126 -190 126 -14 0 -45 -10 -69 -22z m166
-30 c39 -23 69 -93 59 -140 -19 -94 -106 -168 -183 -153 -47 8 -98 61 -107
109 -20 106 88 231 179 209 11 -3 34 -14 52 -25z"/>
<path d="M11650 12657 c0 -15 -32 -63 -91 -132 -50 -60 -97 -114 -106 -120
-13 -10 -13 -13 3 -26 14 -12 18 -12 22 0 4 12 44 63 131 169 19 23 39 42 43
42 4 0 9 -89 10 -197 l3 -197 110 132 c60 73 116 132 124 132 11 0 10 4 -4 20
-21 24 -35 26 -35 6 0 -8 -36 -58 -80 -112 l-80 -96 0 63 c0 35 -3 122 -7 192
-5 110 -9 129 -25 138 -15 8 -18 6 -18 -14z"/>
<path d="M12155 12061 c-46 -20 -102 -79 -111 -117 -13 -51 2 -123 33 -161 32
-41 96 -78 114 -68 6 5 -5 15 -29 25 -65 29 -101 96 -88 166 9 47 67 109 120
129 92 35 186 -31 186 -132 0 -25 1 -25 19 -9 16 14 18 23 10 45 -15 44 -69
102 -113 122 -52 23 -90 23 -141 0z"/>
<path d="M2382 12023 c-68 -98 -122 -290 -122 -438 0 -87 24 -213 53 -275 28
-60 109 -138 180 -175 49 -24 57 -32 52 -50 -18 -55 -18 -75 1 -75 11 0 33 9
49 20 41 27 62 25 77 -7 7 -16 27 -35 45 -43 37 -17 45 -33 73 -145 29 -110
50 -280 50 -394 0 -107 -20 -291 -32 -291 -4 0 -10 17 -13 38 -20 124 -71 250
-136 332 -15 19 -29 44 -31 55 -2 13 -12 21 -31 23 -26 3 -28 1 -25 -24 2 -20
10 -30 26 -34 24 -5 49 -39 84 -110 12 -25 24 -47 28 -50 14 -12 53 -170 41
-170 -3 0 -21 23 -39 50 -39 61 -64 67 -27 8 70 -114 85 -155 85 -226 0 -51
-6 -81 -24 -118 -13 -27 -38 -88 -56 -137 -19 -48 -37 -84 -41 -80 -3 5 -12
51 -18 103 -7 52 -19 120 -28 150 -23 83 -73 210 -82 210 -5 0 -11 12 -14 28
-7 33 -146 257 -210 338 -26 32 -87 111 -136 175 -98 127 -151 178 -224 215
-54 28 -67 25 -67 -14 1 -23 2 -25 11 -9 5 9 14 17 19 17 4 0 36 -21 70 -47
40 -30 92 -86 146 -157 47 -61 105 -136 130 -166 56 -68 157 -220 214 -320 75
-133 130 -292 150 -435 6 -44 15 -93 20 -109 6 -16 7 -32 5 -35 -13 -12 -34
30 -194 374 -15 33 -40 92 -56 130 -72 180 -243 475 -310 538 -46 42 -42 22 6
-31 30 -33 81 -123 161 -283 64 -129 122 -251 129 -271 7 -21 16 -38 20 -38 4
0 10 -15 13 -32 6 -30 34 -89 157 -328 36 -70 48 -110 32 -110 -11 0 -116 82
-171 134 -106 99 -225 290 -237 381 -35 242 -123 489 -244 681 -44 70 -38 47
17 -69 58 -121 121 -294 157 -432 15 -55 31 -114 36 -131 5 -17 9 -40 9 -52 0
-39 52 -155 107 -238 57 -88 183 -214 267 -268 77 -49 82 -58 68 -119 -6 -29
-23 -95 -37 -147 -33 -117 -78 -312 -95 -404 -18 -96 -22 -87 -75 151 -28 129
-55 215 -92 293 -47 100 -135 224 -212 300 -128 128 -343 271 -368 247 -3 -4
5 -20 19 -35 65 -69 182 -273 205 -357 8 -27 29 -106 47 -175 53 -201 114
-328 219 -453 40 -48 138 -123 191 -145 27 -12 28 -15 23 -60 -13 -118 -29
-223 -37 -249 -8 -27 -8 -27 -9 9 -2 99 -62 234 -121 274 -48 33 -109 33 -142
-1 -38 -38 -53 -102 -38 -164 14 -59 58 -111 75 -88 12 16 35 11 35 -8 0 -53
114 -198 166 -211 26 -7 26 -8 20 -68 -17 -163 -18 -478 -2 -690 9 -121 14
-222 11 -224 -3 -3 -5 0 -5 6 0 19 -18 14 -23 -5 -3 -14 -7 -11 -17 12 -80
174 -286 354 -475 416 -52 17 -150 14 -197 -5 -33 -14 -93 -75 -83 -85 3 -2
23 2 44 9 36 12 45 11 95 -10 64 -26 126 -87 235 -234 85 -116 200 -206 261
-206 11 0 20 -3 20 -8 0 -8 56 -27 112 -37 21 -4 41 -12 46 -19 6 -6 17 -60
26 -121 13 -95 48 -286 76 -420 23 -108 71 -287 116 -435 46 -147 113 -344
140 -405 7 -16 26 -64 43 -105 16 -41 46 -110 66 -153 20 -43 35 -81 32 -83
-6 -6 -139 152 -201 239 -56 79 -219 354 -291 492 -97 187 -174 317 -248 420
-49 68 -74 97 -183 215 -29 30 -65 70 -80 89 -76 90 -183 185 -247 217 -39 21
-54 6 -34 -32 28 -55 69 -194 95 -324 71 -350 121 -527 208 -736 124 -301 294
-554 485 -724 85 -75 290 -220 336 -237 10 -4 47 -26 83 -48 36 -23 100 -61
144 -84 189 -102 377 -234 358 -253 -5 -5 -63 -13 -130 -19 -66 -5 -138 -15
-159 -23 -21 -7 -78 -19 -128 -25 -163 -21 -229 -33 -300 -51 -79 -21 -153
-46 -169 -58 -6 -5 -33 -17 -61 -27 -60 -22 -143 -69 -243 -137 -60 -41 -75
-48 -88 -37 -19 16 -30 4 -14 -16 10 -12 10 -18 0 -30 -11 -14 -40 -21 -40
-11 0 3 5 17 10 33 10 27 9 27 -6 8 -29 -37 -44 -74 -34 -80 6 -3 15 -3 20 0
6 4 18 1 26 -6 19 -16 63 6 65 33 1 10 2 23 3 29 3 31 294 192 421 232 98 32
201 56 265 62 l65 7 -97 -51 c-119 -62 -180 -100 -191 -117 -4 -8 -14 -14 -21
-14 -21 0 -160 -141 -199 -201 -82 -130 -99 -261 -52 -413 25 -84 74 -172 100
-182 8 -4 15 -17 15 -30 0 -29 51 -58 86 -50 47 12 55 74 13 97 -15 7 -29 7
-51 0 -17 -6 -35 -11 -39 -11 -15 0 -50 44 -69 85 -75 166 -79 300 -10 435 24
48 106 155 137 180 77 62 115 90 158 117 62 39 185 102 245 126 25 10 59 24
75 31 37 16 343 62 352 53 3 -4 -3 -17 -14 -30 -66 -72 -94 -243 -57 -350 15
-45 62 -97 88 -97 24 0 55 40 69 92 9 29 19 107 22 173 4 66 11 128 14 138 6
15 24 -4 92 -95 149 -200 384 -475 518 -606 18 -18 31 -35 29 -38 -9 -9 -335
24 -358 36 -22 12 -50 7 -50 -8 0 -25 250 -163 360 -197 30 -10 63 -22 72 -26
9 -5 61 -12 114 -15 l98 -7 110 -95 c61 -52 146 -124 189 -161 42 -36 83 -68
90 -70 15 -5 177 -122 177 -128 0 -5 -35 4 -65 17 -34 15 -232 81 -267 90 -18
5 -67 17 -108 28 -41 10 -100 24 -130 31 -30 7 -73 16 -95 21 -22 5 -76 16
-120 25 -44 10 -93 21 -110 26 -16 4 -52 11 -80 14 -27 4 -59 10 -70 14 -11 5
-92 25 -180 46 -240 55 -459 124 -660 207 -146 61 -163 65 -171 45 -16 -43
117 -188 258 -280 48 -31 89 -57 91 -57 2 0 44 -23 93 -51 160 -93 188 -108
254 -140 36 -18 72 -36 80 -41 78 -44 350 -158 380 -158 9 0 20 -4 26 -10 5
-5 64 -25 131 -44 103 -30 166 -46 348 -89 59 -14 -76 -4 -165 12 -58 11 -134
25 -170 31 -36 7 -108 25 -160 40 -185 54 -238 63 -385 64 -162 1 -207 -4
-292 -33 -154 -52 -279 -160 -405 -351 -71 -107 -82 -131 -79 -169 1 -11 5
-11 19 2 10 10 24 17 31 17 7 0 11 8 10 18 -3 32 1 39 33 71 32 31 182 114
191 105 2 -3 37 0 77 7 55 8 97 8 174 -1 136 -16 202 -34 401 -110 153 -59
355 -125 450 -148 173 -43 215 -47 465 -47 219 0 256 3 350 24 189 41 317 106
406 203 45 50 94 131 94 157 0 24 27 18 132 -33 210 -102 283 -134 433 -191
83 -31 154 -61 159 -65 4 -5 -14 -11 -40 -15 -187 -24 -380 -100 -569 -224
-98 -64 -234 -198 -299 -294 -124 -186 -246 -501 -246 -639 0 -67 27 -133 60
-143 11 -4 28 -17 36 -31 22 -33 42 -30 89 11 61 54 149 116 262 184 56 34
104 61 107 61 10 0 202 112 261 153 98 67 161 125 219 200 63 84 84 125 157
302 66 161 103 225 175 299 l56 57 71 -20 c128 -38 140 -41 267 -71 164 -38
380 -79 508 -95 28 -4 52 -10 52 -14 0 -4 -23 -24 -50 -45 -116 -89 -184 -221
-159 -312 6 -21 28 -56 50 -77 38 -38 38 -39 67 -22 49 29 92 106 132 238 21
67 47 142 57 165 17 39 20 42 58 42 22 0 66 -4 99 -10 32 -5 167 -12 300 -16
132 -3 244 -8 249 -11 15 -9 -46 -53 -143 -103 -82 -43 -137 -79 -225 -148
-137 -109 -204 -198 -273 -363 -101 -244 -275 -486 -426 -594 -78 -55 -178
-102 -356 -167 -49 -18 -66 -29 -68 -45 -3 -23 19 -34 118 -59 66 -16 301 -18
386 -4 133 24 211 41 249 56 22 8 49 18 60 21 48 16 176 90 243 141 236 178
424 502 458 787 11 100 17 104 43 29 35 -103 142 -321 196 -399 59 -86 201
-251 264 -306 71 -63 171 -109 171 -79 0 7 7 7 20 0 41 -22 39 2 -2 44 -85 85
-113 177 -122 396 -3 80 -10 170 -15 200 -29 174 -134 322 -358 507 -51 42
-90 80 -88 84 3 4 60 10 127 13 284 15 665 67 923 125 22 5 63 14 90 19 28 6
75 17 105 26 30 8 91 24 135 36 178 48 526 169 705 247 187 81 380 176 380
188 0 12 -41 55 -52 55 -3 0 -50 -21 -105 -46 -54 -25 -126 -59 -159 -74 -113
-52 -287 -122 -424 -170 -173 -61 -153 -54 -240 -80 -41 -12 -99 -29 -127 -37
-86 -26 -95 -4 -72 177 16 130 -6 218 -69 277 -62 58 -93 9 -94 -146 0 -118
19 -203 58 -261 13 -19 24 -46 24 -61 0 -24 -6 -27 -69 -42 -101 -25 -102 -25
-150 48 -48 74 -198 213 -306 283 -78 52 -247 137 -291 148 -16 4 -31 10 -34
13 -3 4 -36 20 -75 36 -303 127 -475 274 -475 407 0 48 -12 74 -29 64 -39 -24
26 -278 103 -405 97 -157 279 -349 419 -439 158 -101 408 -192 531 -192 19 0
37 -4 40 -9 8 -12 -156 -41 -399 -71 -129 -16 -519 -40 -658 -40 -180 0 -412
19 -445 36 -29 15 -85 17 -117 5 -83 -34 -229 205 -345 564 -32 97 -38 117
-55 185 -9 36 -20 79 -25 95 -4 17 -18 73 -30 125 -91 405 -129 559 -147 593
-7 15 -12 27 -9 27 12 0 -80 249 -143 385 -91 195 -257 422 -359 491 -39 27
-93 31 -112 9 -10 -13 -6 -29 22 -93 117 -257 161 -514 138 -816 -6 -83 -15
-178 -20 -211 -13 -82 -12 -366 1 -462 22 -161 101 -341 203 -468 104 -127
218 -227 375 -325 30 -19 49 -36 43 -38 -42 -14 -695 160 -857 228 -11 5 -46
18 -79 30 -83 29 -165 103 -207 187 l-34 67 4 131 c9 309 8 341 -15 372 -27
36 -53 40 -87 13 -50 -39 -68 -109 -69 -263 0 -112 17 -173 74 -263 43 -70 48
-84 16 -54 -13 12 -41 35 -63 52 -22 17 -62 57 -90 89 -85 99 -106 146 -186
402 -5 18 -5 36 1 47 6 10 10 37 10 59 0 48 20 100 76 201 23 41 48 95 55 120
7 25 25 60 41 78 15 18 28 37 28 42 0 17 23 11 100 -27 132 -64 241 -46 333
57 73 81 95 207 62 348 -15 63 -43 116 -100 187 -39 48 -55 79 -85 165 -45
128 -101 178 -185 166 l-43 -5 -6 37 c-16 93 -111 214 -201 256 -42 20 -69 26
-125 26 -93 0 -155 -29 -255 -120 -91 -82 -123 -94 -212 -79 -52 9 -67 8 -97
-6 -20 -10 -42 -27 -48 -39 -6 -11 -17 -26 -24 -33 -12 -13 -34 -97 -34 -134
0 -11 5 -41 12 -66 13 -53 88 -138 131 -148 26 -7 28 -35 3 -35 -24 0 -94 -70
-110 -111 -16 -38 -16 -45 -1 -90 9 -26 26 -60 37 -74 27 -35 33 -95 15 -177
-15 -69 -9 -147 15 -193 45 -87 148 -155 235 -155 46 0 196 34 278 64 22 8 41
13 42 13 1 -1 -3 -39 -9 -84 -13 -103 1 -225 43 -375 7 -26 10 -51 6 -54 -8
-9 -47 18 -127 87 -74 63 -126 89 -177 89 -37 0 -43 -3 -43 -20 0 -28 33 -90
62 -116 65 -60 275 -160 317 -152 11 3 27 -17 54 -66 44 -80 82 -131 146 -198
25 -27 42 -48 37 -48 -10 0 -268 127 -361 178 -129 71 -329 194 -455 279 -139
95 -342 247 -361 269 -10 12 -6 34 19 112 68 211 86 353 79 628 -7 237 -34
461 -93 764 -9 47 -20 110 -24 140 -14 97 -51 273 -71 345 -78 274 -130 371
-413 784 -28 41 -61 89 -74 107 -31 47 -52 45 -52 -4 0 -21 3 -42 6 -45 4 -4
8 -21 9 -39 1 -18 7 -76 14 -130 10 -77 11 -128 1 -255 -14 -187 -15 -193 -29
-303 -5 -47 -15 -130 -20 -185 -6 -55 -13 -111 -16 -125 -2 -14 -9 -116 -15
-227 -10 -203 -2 -419 21 -522 5 -25 14 -68 20 -96 13 -60 53 -195 76 -250 59
-148 138 -301 175 -341 11 -13 15 -24 10 -28 -12 -7 -231 218 -368 377 -148
173 -232 279 -354 450 -106 150 -111 159 -95 177 16 18 6 38 -14 25 -17 -10
-23 15 -11 53 13 40 20 57 74 174 83 182 128 386 128 583 0 142 -25 237 -94
365 -40 75 -42 80 -25 98 22 24 22 49 -1 61 -71 38 -170 14 -242 -58 -108
-109 -193 -362 -194 -578 l0 -102 -27 57 c-57 120 -93 200 -129 294 l-38 97
44 89 c23 49 80 140 125 203 85 117 189 274 189 285 0 3 11 20 24 37 58 77
117 233 137 359 12 77 6 164 -21 328 -5 30 -17 102 -25 160 -16 103 -36 180
-55 210 -17 28 -28 -4 -33 -100 -6 -107 -19 -177 -49 -265 -29 -83 -53 -129
-169 -322 -145 -239 -183 -308 -230 -418 -15 -35 -39 -149 -39 -187 0 -67 -17
-40 -24 40 -5 42 -9 91 -11 107 -9 79 36 346 77 448 13 33 4 47 -11 19 -21
-40 -63 -210 -81 -331 -7 -46 -16 -77 -19 -70 -10 20 4 340 18 429 7 41 21 94
32 117 10 24 19 47 19 53 0 6 11 15 24 21 36 17 50 56 31 85 -18 27 -19 28
-45 14 -12 -7 -21 -26 -25 -58 -4 -26 -18 -87 -32 -137 -21 -76 -26 -118 -30
-275 -5 -194 -10 -237 -23 -185 -16 64 -62 272 -70 320 -5 28 -19 106 -31 175
-12 69 -21 143 -20 165 3 58 41 99 146 156 119 64 207 128 244 179 67 92 86
200 57 321 -24 101 -38 105 -29 9 13 -135 8 -192 -20 -253 -31 -68 -91 -127
-176 -174 -72 -39 -163 -94 -198 -119 -83 -59 77 121 187 211 39 32 84 77 99
99 44 64 93 156 89 168 -2 5 -17 -15 -33 -47 -43 -82 -105 -156 -182 -218 -72
-58 -138 -124 -167 -169 -41 -62 -50 -9 -11 58 16 27 53 62 103 98 127 90 190
167 239 290 13 33 23 74 23 90 0 20 7 36 20 44 17 10 18 16 10 32 -18 33 -27
23 -34 -34 -9 -66 -99 -242 -153 -299 -21 -21 -67 -60 -103 -85 -36 -26 -78
-59 -95 -74 -16 -15 -33 -28 -37 -28 -18 0 -22 78 -22 440 -1 342 1 389 15
411 11 16 44 35 90 54 88 34 209 96 263 136 53 38 266 246 266 259 0 5 4 10 8
10 13 0 47 68 39 76 -4 4 -7 0 -7 -9 0 -9 -4 -17 -10 -17 -5 0 -10 -7 -10 -15
0 -8 -4 -15 -8 -15 -5 0 -13 -9 -18 -19 -7 -16 -114 -113 -225 -206 -30 -25
-76 -55 -84 -55 -4 0 14 21 38 48 84 88 145 177 190 273 23 49 131 165 206
219 33 24 61 48 61 52 0 5 4 8 10 8 5 0 38 13 72 28 132 60 198 85 205 78 4
-4 1 -11 -7 -16 -28 -17 -148 -142 -161 -168 -8 -15 -20 -33 -27 -41 -7 -7
-44 -77 -83 -155 -81 -161 -99 -188 -185 -271 -76 -73 -167 -129 -299 -182
-122 -49 -177 -63 -252 -63 -41 0 -54 -3 -43 -10 8 -5 45 -10 81 -10 165 0
447 141 584 292 41 46 76 104 138 228 113 226 162 287 317 389 l85 56 -38 3
c-22 2 -75 -8 -125 -24 -194 -61 -321 -130 -439 -239 l-63 -57 0 37 c0 52 -36
85 -92 85 -115 0 -234 -57 -343 -162 -43 -43 -80 -76 -82 -74 -4 4 17 115 27
142 10 26 68 57 180 98 185 67 353 141 381 167 8 8 40 31 71 52 74 50 197 179
252 264 91 143 175 326 155 339 -6 3 -47 -30 -92 -73 -108 -103 -224 -179
-372 -241 -261 -109 -333 -153 -445 -266 -30 -31 -58 -56 -62 -56 -24 0 15 67
91 158 92 111 107 132 93 132 -4 0 -28 -24 -53 -52 -80 -95 -97 -113 -102
-108 -10 9 29 80 64 116 30 32 31 36 11 29 -21 -6 -23 -5 -13 13 25 47 144
152 157 139 3 -3 -6 -28 -22 -56 -31 -58 -26 -79 8 -36 50 63 64 117 32 129
-21 8 -89 -32 -132 -78 -19 -20 -38 -36 -44 -36 -13 0 0 58 21 89 9 14 34 61
57 105 l40 81 97 7 c132 9 215 31 333 88 96 47 233 140 281 192 12 12 35 49
52 82 42 79 33 91 -64 82 -80 -8 -185 -28 -265 -53 -84 -25 -239 -108 -308
-163 -33 -28 -63 -50 -66 -50 -3 0 -2 24 1 53 6 60 33 113 203 402 29 50 58
99 64 110 6 11 38 64 71 118 l60 98 6 -39 c5 -41 23 -72 41 -72 24 0 76 -33
86 -54 5 -12 16 -64 23 -116 14 -99 36 -145 79 -167 48 -24 88 18 169 173 18
33 53 84 78 113 l46 53 24 -31 c30 -38 91 -71 132 -71 17 0 56 7 88 15 64 17
92 14 171 -18 80 -32 84 -15 19 80 -56 82 -87 176 -87 264 0 83 -70 176 -152
201 l-37 11 26 31 c68 81 84 209 37 295 -24 45 -98 111 -123 111 -7 0 -25 7
-39 15 -15 8 -63 30 -107 50 -84 38 -144 88 -197 163 -16 24 -34 42 -40 40
-14 -5 -78 -195 -78 -231 0 -16 -4 -36 -10 -46 -9 -18 -12 -17 -56 5 -81 41
-158 27 -229 -43 -90 -90 -151 -273 -156 -471 -2 -78 9 -93 48 -62 68 53 151
65 198 28 25 -19 40 -24 83 -27 26 -2 21 -13 -138 -271 -46 -74 -126 -208
-179 -298 l-96 -163 -13 153 c-7 84 -13 160 -14 168 -2 69 -58 321 -87 393
-14 36 -14 37 3 37 7 0 16 12 19 28 25 120 29 131 64 152 19 11 40 20 47 20 7
0 21 7 32 15 19 15 19 15 -1 30 -11 9 -33 14 -50 13 l-30 -3 3 57 c11 172 -81
369 -234 503 -119 105 -177 166 -199 210 -26 49 -47 55 -73 18z m158 -177
c186 -168 250 -255 285 -389 15 -59 20 -168 8 -180 -26 -26 -45 71 -23 114 7
12 7 19 1 19 -6 0 -15 -9 -21 -20 -16 -30 -40 -25 -40 8 0 15 5 33 12 40 8 8
8 12 1 12 -6 0 -16 -14 -22 -32 -10 -30 -13 -31 -28 -16 -15 15 -15 19 1 53
10 20 16 39 13 41 -2 3 -12 -11 -21 -31 -25 -52 -39 -44 -32 18 3 29 2 39 -2
22 -9 -40 -42 -47 -42 -10 0 23 -2 26 -15 15 -13 -11 -15 -8 -15 13 0 14 4 37
10 51 5 14 6 26 2 26 -4 0 -13 -15 -20 -32 -11 -29 -14 -31 -23 -15 -7 13 -7
27 0 49 16 46 13 58 -5 21 -20 -39 -34 -43 -34 -8 0 16 -6 25 -16 25 -11 0
-14 5 -10 16 3 8 1 24 -4 34 -5 10 -14 43 -18 72 -8 47 -10 50 -19 30 -9 -23
-10 -22 -21 15 -18 61 -33 144 -27 154 3 5 20 -8 38 -28 18 -21 57 -60 87 -87z
m-151 2 c16 -77 54 -175 99 -251 43 -75 140 -187 192 -224 22 -15 40 -36 40
-45 0 -24 -21 -68 -33 -68 -5 0 -35 27 -67 60 -32 33 -61 60 -64 60 -9 0 75
-109 103 -134 23 -21 28 -46 8 -46 -7 0 -42 29 -77 65 -36 35 -69 65 -73 65
-13 0 27 -52 88 -113 30 -31 55 -59 55 -62 0 -10 -69 23 -112 54 -24 16 -61
45 -82 65 -68 64 -53 27 17 -41 37 -36 66 -68 63 -70 -2 -2 -21 6 -42 18 -146
82 -196 183 -197 404 0 66 5 145 12 175 16 70 43 150 51 150 3 0 12 -28 19
-62z m1269 -217 c52 -40 73 -51 147 -76 163 -55 231 -131 223 -249 -5 -73 -25
-116 -78 -173 -33 -35 -50 -44 -100 -55 -57 -11 -62 -11 -82 9 -20 21 -20 23
-5 47 44 67 56 146 35 235 -13 58 -33 71 -21 14 4 -21 7 -67 5 -102 -2 -50 -9
-73 -30 -104 -29 -44 -61 -64 -47 -31 23 55 25 204 3 204 -5 0 -8 -15 -7 -32
2 -18 1 -51 0 -73 l-3 -40 -9 30 c-5 17 -17 53 -25 80 -25 79 -45 123 -60 129
-12 5 -12 1 -3 -17 6 -12 18 -29 26 -39 10 -11 16 -50 20 -115 l5 -98 -36 37
c-20 20 -36 40 -36 44 0 4 -23 43 -51 86 -35 55 -54 97 -61 136 -10 53 -8 64
22 152 43 127 45 128 86 79 19 -23 56 -58 82 -78z m-262 -154 c23 -24 45 -56
49 -72 10 -44 36 -105 65 -149 14 -21 30 -46 35 -55 6 -8 16 -21 23 -29 6 -7
12 -16 12 -19 0 -8 -37 23 -75 63 -42 44 -102 87 -116 82 -6 -2 7 -16 29 -32
40 -27 108 -96 96 -96 -4 0 -34 17 -68 38 -77 49 -145 75 -182 70 -27 -4 -26
-5 16 -17 38 -11 205 -103 220 -122 3 -3 12 -9 20 -12 9 -3 5 -6 -11 -6 -41
-1 -43 -14 -3 -26 21 -5 39 -16 42 -23 9 -27 -209 -94 -233 -71 -5 5 -16 9
-25 9 -9 0 -25 9 -36 21 -48 53 -103 61 -158 24 -20 -14 -41 -25 -46 -25 -19
0 -10 108 16 196 51 177 149 294 247 294 33 0 46 -7 83 -43z m632 -428 c24
-12 54 -37 68 -58 29 -45 52 -129 46 -170 -7 -47 17 -127 53 -182 37 -54 36
-55 -23 -35 -37 13 -48 13 -113 -6 -91 -26 -131 -19 -181 32 -41 40 -45 62
-28 134 7 33 5 46 -16 85 -13 25 -24 50 -24 56 0 14 42 -33 65 -72 11 -18 23
-33 27 -33 4 0 8 -8 9 -17 0 -10 3 -13 6 -6 2 7 -7 27 -20 45 -13 18 -33 46
-43 63 l-19 29 45 -24 c24 -14 73 -54 108 -89 35 -35 64 -62 66 -60 2 2 -7 21
-20 41 -28 44 -107 109 -178 146 -48 25 -49 27 -23 30 33 4 127 -30 180 -64
41 -27 50 -23 15 7 -37 31 -152 79 -191 79 -11 0 -14 5 -10 16 4 12 18 15 65
12 49 -2 56 -1 41 10 -9 6 -33 12 -52 13 l-36 0 40 19 c53 25 90 24 143 -1z
m-488 -89 c11 -39 10 -43 -29 -92 -37 -45 -49 -68 -37 -68 3 0 23 19 45 42
l40 43 30 -23 c17 -12 36 -22 44 -22 22 0 38 -42 40 -108 1 -36 6 -61 12 -59
12 4 14 122 3 152 -6 16 -1 24 23 38 17 9 35 17 40 17 16 0 39 -72 39 -124 0
-48 -4 -57 -56 -121 -30 -39 -68 -98 -84 -132 -31 -67 -73 -103 -121 -103 -37
0 -44 12 -64 120 -22 114 -41 152 -82 164 -23 7 -33 17 -37 39 -16 79 38 191
118 245 26 17 52 32 57 32 4 0 13 -18 19 -40z m-45 -774 c-33 -13 -112 -43
-175 -67 -124 -47 -193 -81 -280 -139 -83 -55 -157 -93 -172 -87 -21 7 97 117
182 168 150 89 320 145 455 147 l50 1 -60 -23z m65 -12 c0 -23 -47 -76 -115
-131 -83 -66 -210 -137 -305 -167 -30 -10 -66 -23 -79 -28 -13 -5 -66 -11
-117 -15 -77 -5 -94 -3 -94 8 0 12 70 49 93 49 4 0 56 30 115 68 138 87 149
92 327 162 149 57 175 66 175 54z m-1630 -400 c121 -86 170 -137 258 -263 100
-143 134 -234 197 -521 18 -85 37 -165 40 -177 12 -38 -10 -26 -71 40 -67 71
-128 187 -169 317 -15 47 -30 96 -35 110 -4 14 -16 52 -25 85 -10 33 -31 87
-46 120 -33 72 -89 156 -89 135 0 -9 4 -20 9 -25 32 -35 85 -165 126 -310 53
-185 98 -300 145 -370 49 -74 0 -39 -67 48 -90 116 -145 244 -205 482 -16 66
-35 129 -41 140 -6 11 -17 35 -23 53 -12 32 -107 184 -131 210 -17 17 -17 25
0 16 6 -4 64 -44 127 -90z m1588 -91 c-17 -32 -46 -87 -66 -123 -55 -102 -90
-149 -177 -235 -139 -140 -228 -189 -604 -330 -52 -19 -97 -32 -100 -30 -19
20 79 130 175 196 43 29 222 121 304 155 105 44 290 169 290 196 0 6 -15 -1
-32 -16 -84 -67 -312 -196 -346 -196 -34 0 -250 -125 -311 -179 -61 -54 -23 7
49 79 108 108 218 176 410 252 175 69 305 152 404 257 17 17 31 31 33 31 1 0
-12 -26 -29 -57z m-639 -784 c-24 -23 -33 -34 -19 -25 14 9 38 25 54 36 16 10
34 16 40 13 6 -4 6 -8 -2 -11 -7 -2 -12 -8 -12 -13 0 -20 -191 -275 -267 -359
-84 -91 -168 -170 -183 -170 -4 0 -1 15 8 33 16 32 97 161 117 185 5 7 15 18
20 25 6 7 30 39 55 72 24 33 66 82 92 110 51 54 64 79 22 42 -39 -33 -143
-160 -216 -264 -64 -89 -92 -113 -61 -52 8 17 13 33 9 36 -3 3 -11 -6 -17 -21
-20 -43 -27 -30 -22 37 4 53 12 72 51 131 82 122 244 233 346 235 l29 1 -44
-41z m129 -2 c6 -66 -46 -192 -120 -292 -106 -144 -221 -242 -352 -300 -49
-22 -57 -23 -63 -9 -4 10 29 50 108 127 94 92 161 167 227 252 4 6 28 39 52
75 24 36 56 81 71 100 15 19 31 48 35 63 10 42 38 32 42 -16z m-740 -214 c25
-24 47 -60 61 -98 23 -61 46 -174 37 -182 -10 -11 -25 9 -41 56 -29 78 -85
154 -122 165 -23 6 -37 5 -48 -4 -9 -7 -13 -15 -10 -18 2 -3 12 1 20 8 13 11
20 9 45 -15 25 -24 44 -58 93 -165 6 -14 26 -49 44 -78 38 -60 38 -62 18 -62
-31 0 -87 64 -125 145 -46 96 -63 114 -91 97 -25 -16 -39 11 -39 78 0 73 27
110 80 110 32 0 47 -7 78 -37z m-401 -1005 c67 -17 195 -103 284 -190 74 -72
187 -224 175 -235 -3 -3 -45 32 -93 79 -99 97 -199 185 -225 199 -35 19 -17
-8 30 -47 118 -95 331 -300 332 -316 0 -21 -114 14 -191 58 -88 49 -117 77
-221 205 -51 64 -109 130 -129 147 -42 36 -113 71 -146 72 -31 0 -29 14 5 27
37 15 122 15 179 1z m1377 -447 c-3 -25 -9 -84 -14 -131 -11 -102 -24 -189
-39 -250 -6 -25 -11 -60 -11 -77 0 -18 -4 -33 -10 -33 -5 0 -10 -11 -10 -24 0
-13 -7 -37 -15 -52 -8 -16 -15 -36 -15 -46 0 -9 -3 -18 -7 -20 -10 -4 -43 -63
-43 -75 0 -4 14 12 30 37 16 25 30 50 30 56 0 5 9 28 19 50 26 53 48 161 77
364 30 218 30 217 37 190 41 -167 52 -434 23 -540 -17 -59 -111 -268 -127
-280 -3 -3 -30 -43 -58 -90 -29 -47 -83 -128 -121 -180 -75 -105 -110 -160
-151 -235 l-28 -49 -20 47 c-15 34 -19 62 -16 95 3 36 2 40 -4 17 -14 -54 -26
1 -25 117 2 151 24 214 165 478 13 24 29 49 35 55 19 18 89 138 168 289 47 88
96 235 96 284 0 15 6 51 12 80 l13 54 7 -43 c4 -23 5 -63 2 -88z m-1535 -248
c65 -48 294 -294 410 -440 44 -56 121 -178 173 -273 275 -508 349 -625 568
-890 84 -103 142 -185 178 -252 30 -55 52 -101 50 -104 -7 -6 -119 66 -175
113 -76 64 -267 313 -362 473 -182 305 -460 735 -469 725 -5 -5 5 -22 142
-238 58 -92 145 -236 193 -320 47 -84 118 -199 156 -257 219 -327 301 -414
480 -514 58 -32 75 -48 111 -104 67 -104 101 -170 93 -178 -4 -4 -34 11 -67
34 -32 23 -64 42 -70 42 -5 0 -10 5 -10 10 0 6 -5 10 -11 10 -6 0 -25 11 -43
25 -18 14 -36 25 -40 25 -4 0 -31 15 -59 34 -29 18 -80 48 -112 66 -91 50
-291 186 -371 251 -238 194 -441 505 -578 884 -14 39 -32 95 -42 125 -9 30
-23 75 -31 100 -15 46 -44 179 -88 395 -13 66 -35 156 -49 200 -14 44 -26 81
-26 82 0 8 17 0 49 -24z m2346 -888 c27 -76 46 -206 70 -475 18 -213 21 -241
34 -355 13 -114 57 -458 71 -550 37 -242 77 -561 96 -750 3 -33 8 -67 11 -75
4 -8 8 -36 10 -61 3 -41 50 -229 68 -271 4 -11 3 -18 -4 -18 -6 0 -11 9 -11
19 0 11 -9 21 -23 25 -21 5 -157 164 -157 184 0 4 -11 24 -24 43 -35 51 -123
228 -152 306 -33 88 -69 235 -89 362 -21 132 -16 570 9 796 9 83 21 193 26
245 5 52 16 167 25 255 13 128 14 181 5 265 -17 170 -11 180 35 55z m116 -152
c152 -247 227 -421 278 -638 11 -49 28 -119 36 -155 8 -36 17 -81 19 -100 3
-19 9 -60 15 -90 47 -260 64 -376 87 -595 18 -168 19 -475 3 -575 -30 -185
-72 -340 -94 -340 -7 0 -17 6 -22 13 -30 40 -113 318 -113 380 0 15 -5 27 -11
27 -6 0 -9 9 -6 20 3 11 1 57 -4 102 -25 234 -32 295 -51 428 -11 80 -23 170
-28 200 -45 297 -108 765 -115 855 -3 33 -12 148 -21 255 -8 107 -19 213 -24
235 -10 43 -12 65 -6 65 2 0 28 -39 57 -87z m-861 72 c0 -4 -6 -18 -14 -33
-62 -121 -166 -548 -179 -732 -1 -19 -6 -35 -12 -35 -27 0 -45 263 -25 370 31
168 93 316 162 391 35 38 68 57 68 39z m79 -87 c13 -41 18 -85 25 -203 5 -92
-25 -344 -56 -464 -28 -110 -77 -241 -90 -241 -4 0 -3 10 2 23 9 24 40 223 66
435 12 105 14 129 20 310 4 100 10 182 14 182 4 0 12 -19 19 -42z m105 -93
c49 -104 63 -208 47 -349 -18 -172 -58 -333 -111 -451 -10 -22 -35 -84 -56
-137 -21 -54 -41 -98 -45 -98 -8 0 -69 96 -69 108 0 5 15 41 34 79 44 90 101
272 120 383 8 47 20 157 26 245 9 135 8 173 -5 245 -8 47 -15 90 -15 95 0 17
40 -47 74 -120z m-167 -77 c-3 -101 -15 -246 -26 -323 -11 -77 -26 -176 -32
-220 -13 -96 -39 -207 -50 -219 -10 -11 -46 47 -59 94 -24 88 -14 224 34 440
44 200 110 410 130 410 5 0 7 -77 3 -182z m2198 -809 c60 -17 129 -72 174
-141 35 -51 41 -68 41 -111 0 -51 0 -52 -76 -123 -75 -70 -86 -94 -42 -94 33
0 86 38 117 84 41 59 54 67 106 69 40 2 50 -2 74 -28 15 -17 37 -62 50 -100
13 -39 51 -112 86 -165 78 -119 90 -142 104 -208 34 -162 -19 -298 -135 -347
-77 -32 -140 -14 -289 84 -85 57 -100 71 -108 101 -8 36 -10 41 -71 173 -20
43 -36 84 -36 91 0 6 -5 17 -10 22 -7 7 -4 16 10 29 30 27 26 76 -9 114 -27
28 -34 31 -93 31 -71 0 -99 -14 -123 -60 -21 -41 -19 -58 14 -90 27 -28 31
-28 103 -23 l75 6 5 -34 c3 -19 25 -77 48 -129 49 -110 73 -217 60 -273 -19
-87 -78 -130 -265 -192 -180 -59 -260 -57 -335 11 -59 54 -84 112 -76 182 20
171 20 187 -7 233 -56 95 -43 177 35 223 24 14 84 36 133 48 69 18 91 27 93
42 4 17 0 18 -55 10 -147 -22 -215 -1 -260 81 -50 89 -34 235 29 275 16 10 53
15 123 15 120 1 136 8 240 105 100 92 172 116 270 89z m950 -401 c74 -70 186
-233 260 -383 94 -189 194 -493 259 -785 10 -41 21 -93 26 -115 5 -22 19 -83
30 -135 39 -176 94 -358 175 -580 9 -25 30 -73 46 -108 16 -35 29 -65 29 -67
0 -3 21 -38 47 -80 25 -41 43 -78 40 -82 -12 -12 -90 52 -178 146 -82 89 -95
108 -184 286 -52 104 -95 196 -95 203 0 7 -4 20 -9 30 -20 39 -45 108 -61 167
-32 116 -40 149 -53 220 -20 103 -40 320 -32 346 4 11 4 32 0 47 -11 45 -22 6
-30 -108 -17 -262 68 -639 198 -880 17 -30 50 -93 73 -139 50 -96 104 -171
188 -258 32 -35 55 -63 50 -63 -19 0 -151 73 -249 138 -215 143 -392 356 -459
555 -38 113 -48 197 -42 342 3 77 10 165 15 195 53 334 60 533 27 730 -22 128
-77 314 -112 383 -20 37 -2 35 41 -5z m-3124 -168 c-2 -173 -11 -226 -43 -236
-67 -21 -90 159 -40 300 22 59 58 109 75 103 5 -1 8 -77 8 -167z m608 -650
c46 -6 102 -20 125 -32 42 -21 126 -95 126 -112 0 -16 -142 1 -200 24 -89 35
-240 111 -240 121 0 12 86 11 189 -1z m-972 -201 c111 -48 380 -136 485 -159
24 -5 77 -19 118 -30 41 -12 104 -27 140 -35 36 -7 106 -22 155 -33 87 -19
238 -51 340 -72 178 -37 440 -108 540 -147 126 -49 285 -129 322 -161 l28 -23
-25 4 c-14 3 -72 18 -130 34 -58 17 -152 43 -210 58 -58 16 -161 48 -230 73
-162 57 -220 72 -280 72 -35 0 -50 -4 -50 -14 0 -9 20 -15 68 -19 40 -3 107
-20 167 -42 135 -49 164 -59 280 -94 116 -35 207 -66 324 -114 121 -50 103
-53 -99 -17 -30 5 -98 16 -150 25 -171 29 -324 64 -480 110 -30 9 -68 20 -85
24 -50 14 -218 71 -252 87 -17 8 -36 14 -42 14 -6 0 -19 4 -29 9 -28 15 -229
91 -240 91 -6 0 -12 4 -14 8 -4 10 -108 59 -134 64 -44 7 -13 -25 51 -54 39
-17 94 -41 123 -54 29 -13 61 -24 72 -24 10 0 21 -4 25 -9 10 -16 274 -113
520 -191 113 -35 363 -92 555 -125 52 -9 111 -20 131 -25 20 -6 54 -10 75 -11
35 0 37 -1 15 -10 -13 -5 -32 -7 -41 -4 -10 3 -53 10 -96 15 -294 34 -480 68
-689 124 -99 27 -348 106 -380 121 -36 17 -114 51 -215 95 -41 18 -79 36 -85
40 -5 5 -39 24 -75 42 -216 114 -460 265 -532 332 -58 52 -50 59 29 25z m2893
-308 c14 -27 12 -121 -5 -216 -8 -44 -15 -106 -15 -137 0 -93 -26 -89 -55 9
-26 88 -12 274 26 345 13 24 36 23 49 -1z m-628 -5 c19 -8 72 -44 117 -81 46
-36 90 -69 99 -74 31 -18 5 -21 -39 -6 -113 39 -229 120 -229 160 0 19 9 19
52 1z m2977 -224 c77 -61 167 -116 288 -178 70 -35 129 -62 131 -59 3 3 10 1
17 -5 6 -5 72 -40 146 -77 73 -37 168 -94 210 -126 99 -74 243 -227 228 -241
-13 -12 -224 74 -329 135 -76 44 -116 70 -260 173 -27 19 -44 26 -51 19 -17
-17 249 -205 410 -290 l26 -13 -32 0 c-17 0 -65 12 -105 26 -214 77 -383 199
-562 404 -65 75 -179 260 -160 260 3 0 23 -13 43 -28z m-4534 -117 c44 -8 134
-27 200 -44 66 -16 152 -37 190 -46 39 -9 88 -20 110 -25 66 -15 236 -38 535
-72 153 -17 472 -17 578 1 45 7 86 11 89 7 19 -19 -79 -87 -170 -116 -67 -22
-92 -27 -307 -61 -176 -28 -494 -30 -610 -5 -181 40 -301 78 -412 130 -40 19
-116 54 -168 79 -53 24 -122 52 -155 62 -59 17 -188 25 -201 13 -17 -17 14
-28 81 -28 92 0 185 -31 385 -128 208 -101 282 -123 571 -172 214 -37 731 23
900 104 29 14 54 26 56 26 13 0 -4 -29 -42 -69 -57 -61 -158 -113 -285 -147
-153 -42 -489 -57 -680 -30 -205 29 -308 55 -585 151 -105 36 -208 70 -230 76
-164 42 -313 57 -395 40 -30 -7 -73 -16 -95 -20 -22 -4 -57 -15 -77 -24 -52
-22 -50 -5 10 65 59 71 130 129 201 167 62 32 160 68 206 74 71 10 226 6 300
-8z m5849 -165 c9 -27 16 -61 16 -77 0 -53 -24 -183 -34 -180 -21 7 -38 86
-40 182 0 55 2 108 6 117 12 29 35 10 52 -42z m-3120 -398 c3 -5 -17 -32 -44
-60 -66 -69 -90 -109 -182 -302 -43 -90 -94 -190 -113 -221 -64 -105 -201
-214 -426 -340 -52 -29 -96 -55 -99 -58 -3 -3 -23 -14 -45 -24 -42 -20 -238
-149 -292 -193 l-33 -27 -16 39 c-31 75 15 230 113 374 12 19 23 40 23 46 0 7
4 14 8 16 4 2 57 68 117 148 277 365 505 512 940 603 34 8 44 7 49 -1z m-284
-22 c0 -5 -7 -10 -15 -10 -24 0 -193 -76 -259 -116 -161 -99 -324 -256 -453
-435 -45 -63 -88 -125 -95 -139 -8 -14 -31 -52 -52 -84 -65 -100 -128 -243
-140 -318 -11 -70 -20 -83 -31 -48 -22 68 -1 178 65 341 23 57 47 118 54 135
6 18 16 38 22 45 6 8 28 46 49 84 144 264 431 467 760 540 76 16 95 18 95 5z
m1298 -237 c-13 -26 -31 -81 -73 -223 -17 -58 -58 -126 -87 -144 -23 -14 -51
13 -67 65 -26 88 54 231 172 309 64 42 78 40 55 -7z m962 -129 c137 -114 238
-229 282 -324 45 -95 58 -160 68 -325 13 -221 26 -283 71 -361 42 -70 35 -80
-27 -38 -56 37 -95 76 -196 193 -102 117 -157 200 -224 333 -80 158 -160 391
-147 425 8 21 23 15 23 -10 0 -30 50 -168 90 -247 42 -84 149 -248 167 -254
23 -9 14 19 -25 75 -37 54 -112 177 -112 184 0 3 -11 28 -24 57 -37 79 -67
175 -72 232 l-5 51 48 -90 c26 -49 57 -112 68 -139 22 -52 45 -72 45 -38 0 11
-30 80 -66 153 -37 73 -69 151 -72 173 -6 47 -16 52 108 -50z m-310 -46 c-20
-40 -51 -120 -70 -178 -42 -130 -95 -271 -122 -325 -58 -113 -159 -233 -287
-339 -73 -61 -301 -215 -369 -250 -31 -16 -50 -41 -39 -52 2 -3 56 26 118 64
385 232 570 431 659 707 12 39 26 79 31 90 5 11 16 43 24 70 23 71 93 236 110
259 23 31 27 14 15 -75 -5 -46 -10 -117 -10 -158 0 -302 -177 -646 -441 -857
-182 -145 -432 -226 -704 -228 -133 -1 -210 8 -200 24 3 5 36 18 73 30 167 55
281 127 392 247 137 150 230 300 310 503 44 112 78 176 118 225 44 55 131 140
175 172 53 39 228 142 243 143 6 0 -6 -33 -26 -72z"/>
<path d="M6171 11696 c-14 -16 0 -30 40 -40 15 -3 30 -13 33 -22 5 -12 8
-1463 6 -2490 0 -20 -7 -21 -112 -27 -284 -16 -513 -170 -646 -434 -99 -195
-100 -464 -4 -674 37 -82 135 -213 195 -262 67 -55 171 -113 244 -138 35 -11
65 -24 68 -29 3 -4 -19 -14 -48 -21 -48 -11 -90 -31 -177 -82 -144 -86 -273
-260 -327 -443 -22 -76 -26 -107 -25 -214 1 -104 5 -140 27 -215 75 -256 252
-441 510 -532 78 -27 85 -28 285 -27 196 1 210 2 321 32 356 95 602 327 634
597 4 33 11 67 16 76 5 9 61 47 126 85 231 133 312 199 383 310 16 27 30 41
30 33 0 -7 0 -561 0 -1229 0 -1107 -2 -1216 -17 -1232 -9 -10 -27 -18 -40 -18
-16 0 -23 -6 -23 -19 0 -14 10 -20 46 -25 75 -10 139 -7 159 7 21 16 13 37
-15 37 -10 0 -28 12 -39 26 l-21 27 0 1760 c0 968 2 1758 4 1756 2 -2 116
-265 254 -584 237 -551 374 -868 826 -1915 108 -250 263 -609 344 -798 122
-283 150 -342 165 -340 14 2 71 125 241 518 263 608 884 2049 1156 2680 105
245 192 446 193 447 1 1 1 -796 0 -1770 l-3 -1772 -21 -17 c-12 -10 -30 -18
-40 -18 -12 0 -19 -7 -19 -19 0 -14 10 -20 38 -25 48 -8 246 -8 266 0 26 10
20 44 -7 44 -13 0 -31 8 -40 18 -16 17 -17 160 -17 1818 l0 1799 21 18 c12 9
30 17 40 17 23 0 26 35 3 44 -23 9 -187 7 -202 -2 -7 -5 -73 -148 -146 -318
-404 -934 -541 -1253 -816 -1889 -166 -385 -366 -847 -443 -1027 -78 -181
-144 -328 -147 -328 -3 0 -68 145 -144 323 -77 177 -242 558 -366 847 -125
289 -302 698 -393 910 -520 1205 -635 1472 -641 1477 -9 9 -173 14 -208 7 -40
-8 -34 -32 12 -50 29 -12 40 -22 40 -38 0 -11 1 -169 2 -349 2 -223 0 -323 -7
-312 -86 145 -245 271 -416 328 -126 43 -175 51 -304 51 -202 -1 -324 -28
-479 -107 -121 -62 -243 -175 -295 -275 l-33 -63 -61 6 c-146 15 -269 77 -388
195 -67 67 -94 103 -127 168 -74 148 -87 205 -86 382 0 146 2 160 30 240 42
119 100 214 181 292 133 132 233 178 436 202 44 5 47 4 47 -17 3 -296 -2
-1030 -6 -1041 -3 -8 -21 -20 -40 -26 -23 -8 -34 -18 -34 -31 0 -18 9 -19 160
-19 151 0 160 1 160 19 0 13 -11 23 -35 31 -22 7 -37 19 -40 33 -3 12 -6 251
-8 531 l-2 508 55 -6 c94 -10 171 -34 287 -91 96 -48 121 -66 183 -131 107
-113 140 -199 140 -369 0 -57 4 -84 13 -87 10 -4 80 -3 111 1 15 2 -3 137 -27
204 -35 95 -72 154 -150 234 -82 85 -182 154 -286 199 -77 33 -257 84 -298 84
-13 0 -23 3 -23 8 0 4 -1 161 -3 350 l-2 342 560 0 c590 0 637 3 765 47 392
134 650 492 650 900 -1 408 -258 767 -644 899 -153 52 -178 54 -891 54 -548 0
-665 -2 -674 -14z m1423 -65 c313 -105 533 -352 601 -676 23 -105 23 -294 1
-397 -59 -276 -237 -506 -480 -623 -169 -81 -160 -80 -768 -80 -296 0 -538 3
-538 8 0 4 0 410 0 902 l0 896 558 -3 c553 -3 558 -4 626 -27z m-369 -3646
c93 -25 255 -108 313 -160 179 -161 222 -402 106 -587 -66 -105 -142 -165
-384 -305 -480 -278 -750 -438 -805 -477 -123 -88 -220 -221 -243 -332 -6 -31
-13 -40 -32 -43 -44 -6 -132 19 -225 64 -180 86 -310 244 -377 455 -20 66 -23
94 -22 230 0 142 2 162 28 235 74 216 242 394 434 459 39 14 96 28 128 32 l57
7 -8 -77 c-7 -84 -12 -78 60 -79 58 -1 58 0 52 53 -3 27 -2 78 4 112 34 218
214 367 509 423 97 19 321 13 405 -10z m-155 -1358 c0 -228 -207 -434 -515
-512 -115 -30 -229 -43 -238 -28 -12 19 54 133 107 187 45 46 175 142 216 159
8 3 103 58 210 121 107 63 201 115 208 115 8 1 12 -14 12 -42z"/>
<path d="M12470 11629 c-91 -21 -177 -38 -192 -39 -31 0 -34 -7 -13 -34 13
-17 16 -17 29 -3 9 8 39 20 67 26 57 13 48 18 105 -63 l21 -30 -29 -48 c-16
-26 -37 -52 -45 -57 -14 -7 -13 -11 2 -34 16 -25 35 -28 35 -5 0 5 43 79 96
165 53 85 95 155 93 157 -2 1 -78 -14 -169 -35z"/>
<path d="M13020 11074 c0 -3 13 -24 29 -47 38 -56 148 -237 190 -312 19 -33
43 -76 54 -95 33 -59 207 -406 207 -414 0 -4 11 -31 24 -59 33 -73 110 -270
136 -347 12 -36 25 -74 30 -85 8 -20 62 -193 105 -340 12 -44 28 -105 35 -135
6 -30 22 -107 36 -170 158 -741 162 -1559 12 -2285 -11 -55 -26 -127 -33 -160
-36 -174 -155 -564 -231 -760 -39 -99 -42 -105 -78 -188 -14 -32 -26 -59 -26
-62 0 -7 -72 -159 -127 -270 -82 -163 -166 -312 -270 -477 -51 -81 -93 -152
-93 -157 0 -5 -7 -14 -16 -22 -8 -7 -51 -63 -95 -124 -292 -410 -680 -813
-1107 -1150 -63 -50 -124 -97 -137 -105 -12 -8 -72 -49 -131 -91 -102 -71
-289 -190 -396 -252 -26 -15 -52 -35 -57 -45 -8 -15 -15 -63 -12 -85 3 -24
628 372 655 415 6 10 16 18 22 18 10 0 101 64 114 80 3 3 39 33 80 65 205 162
525 473 717 695 123 142 389 487 400 519 4 9 17 28 29 43 26 32 193 300 248
398 32 56 232 460 256 515 82 188 210 546 256 713 8 28 21 78 30 110 8 31 19
75 24 97 5 22 18 76 29 120 40 158 98 526 122 780 18 177 18 811 1 985 -12
123 -16 156 -48 375 -18 127 -67 380 -88 451 -8 27 -23 87 -34 134 -34 141
-50 197 -113 385 -81 240 -223 585 -240 585 -5 0 -9 9 -9 21 0 37 -195 402
-335 627 l-70 112 -47 0 c-27 0 -48 -3 -48 -6z"/>
<path d="M1426 9344 c-48 -13 -94 -28 -102 -35 -10 -8 -19 -7 -36 5 -58 41
-117 13 -203 -97 -51 -65 -66 -91 -70 -127 -3 -25 -15 -67 -26 -95 -39 -95
-43 -113 -29 -130 18 -22 60 -13 106 22 l35 26 -39 -59 c-21 -32 -44 -68 -49
-79 -16 -32 -25 -93 -14 -100 6 -3 8 -12 5 -19 -3 -8 9 -42 26 -75 20 -41 34
-87 40 -138 6 -42 20 -99 33 -127 28 -60 114 -151 153 -160 35 -9 44 5 44 70
0 74 25 146 71 204 55 70 72 112 79 195 l5 70 29 -85 c42 -122 98 -227 166
-308 63 -75 71 -88 43 -77 -10 3 -83 10 -163 14 -80 5 -153 12 -162 16 -32 13
-19 -9 52 -87 103 -112 152 -121 284 -52 37 19 71 34 76 34 14 0 123 -113 221
-228 154 -182 224 -296 303 -497 48 -119 49 -122 53 -104 9 40 -105 321 -167
409 -36 53 -52 126 -51 243 0 107 -1 116 -30 167 -50 93 -67 136 -85 221 -17
76 -44 129 -109 215 -6 8 -5 31 4 66 26 107 25 162 -4 220 -35 71 -108 144
-165 165 -25 9 -47 18 -49 19 -2 2 7 17 19 34 28 39 69 60 119 60 88 0 86 28
-7 87 -31 20 -75 50 -97 67 -106 83 -157 91 -309 50z m208 -11 c17 -3 38 -13
47 -22 37 -37 89 -81 96 -81 5 0 22 -11 38 -25 24 -19 26 -24 12 -25 -31 0
-80 -30 -132 -81 -38 -36 -62 -51 -100 -59 -27 -6 -71 -22 -98 -36 -54 -27
-67 -29 -67 -13 0 14 26 39 40 39 17 0 70 33 70 43 0 7 -40 -10 -50 -22 -3 -3
-20 -11 -38 -18 -28 -10 -34 -9 -39 3 -3 8 -12 13 -20 10 -12 -5 -14 1 -8 36
4 24 11 51 16 60 5 9 9 29 8 45 -1 28 -1 28 -14 -7 -7 -19 -14 -45 -14 -56 -1
-12 -7 -34 -15 -48 -13 -25 -13 -23 -13 36 0 35 -5 79 -12 99 -13 39 -2 86 21
93 69 20 198 44 217 40 13 -3 37 -8 55 -11z m-347 -72 c19 -28 23 -48 23 -106
0 -52 -4 -76 -15 -85 -8 -7 -16 -10 -16 -6 -1 3 -2 9 -3 14 -3 14 -17 32 -27
32 -5 0 -4 -9 3 -20 16 -25 3 -38 -22 -22 -24 15 -70 16 -70 2 0 -5 12 -10 28
-10 15 0 35 -7 45 -14 16 -13 16 -14 1 -20 -9 -4 -31 -4 -49 0 -19 3 -35 1
-39 -5 -5 -8 12 -11 53 -11 63 0 82 -15 34 -26 -73 -16 -108 -27 -113 -33 -8
-12 -111 -81 -121 -81 -19 0 -20 28 -4 66 25 57 45 126 45 152 0 30 35 84 100
155 48 52 56 58 89 55 27 -2 40 -11 58 -37z m471 -270 c121 -62 178 -197 137
-321 -12 -35 -15 -67 -11 -96 6 -49 -1 -54 -42 -26 -41 29 -89 42 -154 42
-108 0 -171 43 -220 149 -37 81 -59 144 -52 151 3 3 25 -18 50 -45 24 -28 44
-45 44 -39 0 6 -16 28 -35 49 -31 35 -40 68 -12 47 21 -15 67 -32 67 -24 0 4
-14 13 -32 21 -29 13 -30 15 -13 28 11 7 36 13 56 13 21 0 41 5 45 11 7 12
-50 8 -93 -6 -46 -15 -23 16 30 40 68 32 179 35 235 6z m-486 -78 c12 -11 16
-27 14 -62 -3 -37 -2 -39 3 -11 4 26 11 35 26 35 18 0 20 -6 18 -60 -1 -33 1
-49 3 -35 28 164 74 105 77 -100 2 -126 -7 -158 -65 -232 -43 -56 -67 -118
-74 -197 l-7 -73 -22 24 c-12 13 -25 30 -28 38 -4 11 -6 10 -6 -4 -1 -19 -1
-19 -22 0 -37 34 -69 100 -85 175 -8 41 -19 90 -23 109 -4 20 -20 61 -34 92
-15 31 -27 69 -27 84 0 51 78 168 143 215 44 32 75 33 109 2z m258 -301 c0
-19 81 -45 161 -53 78 -7 132 -26 208 -73 4 -3 2 -42 -6 -88 -25 -154 -27
-212 -9 -264 9 -26 16 -50 16 -53 0 -6 -103 99 -183 189 -60 66 -146 197 -185
282 -24 53 -27 68 -12 68 6 0 10 -4 10 -8z m449 -202 c29 -131 44 -179 73
-235 50 -98 58 -130 51 -197 l-6 -60 -24 38 c-38 62 -99 194 -106 229 -3 11
-3 0 -1 -25 3 -29 25 -86 62 -161 31 -64 53 -115 47 -112 -19 8 -126 163 -150
218 -31 69 -33 160 -5 260 11 39 20 86 20 105 0 32 1 33 14 15 7 -11 19 -45
25 -75z m-313 -211 c3 -5 17 -9 32 -9 26 0 61 -15 52 -23 -23 -16 -152 -67
-174 -67 -39 0 -86 23 -130 64 -44 41 -44 54 0 31 20 -10 55 -14 119 -13 50 1
72 3 50 5 -22 2 -60 6 -85 10 l-45 7 55 6 c65 6 118 1 126 -11z"/>
</g>
</svg>
